# xmcd
#
# Track frame offsets:
#	150
#	6537
#	25275
#	96230
#	113997
#	125490
#	140162
#	157932
#	171507
#	188982
#	201597
#	210510
#
# Disc length: 2901 seconds
#
# Revision: 2
# Processed by: cddbd v1.5.1PL0 Copyright (c) Steve Scherf et al.
# Submitted via: EasyCDDAExtractor 8.2.1.1
#
DISCID=b60b530c
DTITLE=Wallis And Matilda - Australian Gold
DYEAR=1987
DGENRE=Country
TTITLE0=Prelude
TTITLE1=Clancy Of The Overflow
TTITLE2=The Man From Snowy River
TTITLE3=The Man From Ironbark
TTITLE4=Last Week
TTITLE5=A Bush Christening
TTITLE6=Mulga Bill's Bicycle
TTITLE7=Pioneers
TTITLE8=The Last Parade
TTITLE9=Waltzing Matilda
TTITLE10=Old Man Platypus
TTITLE11=Prelude
EXTD=
EXTT0=
EXTT1=
EXTT2=
EXTT3=
EXTT4=
EXTT5=
EXTT6=
EXTT7=
EXTT8=
EXTT9=
EXTT10=
EXTT11=
PLAYORDER=
